<?xml version="1.0" encoding="utf-8"?>
<!-- Generator: Adobe Illustrator 26.5.0, SVG Export Plug-In . SVG Version: 6.00 Build 0)  -->
<svg version="1.1" id="Ebene_1" xmlns="http://www.w3.org/2000/svg" xmlns:xlink="http://www.w3.org/1999/xlink" x="0px" y="0px"
	 viewBox="0 0 60.9 60.9" style="enable-background:new 0 0 60.9 60.9;" xml:space="preserve">
<style type="text/css">
	.st0{display:none;}
	.st1{display:inline;fill:#F2F2F2;}
	.st2{display:inline;fill:#F68BFF;}
	.st3{display:inline;}
	.st4{fill:#F08327;}
	.st5{fill:#1E3863;}
	.st6{fill:#1D3863;}
	.st7{fill:#F08226;}
	.st8{fill:#21325A;}
	.st9{fill:#203159;}
	.st10{fill:#20315A;}
	.st11{display:inline;fill:#1E3863;}
	.st12{display:inline;fill:#F08327;}
</style>
<g id="Squircle" class="st0">
	<path class="st1" d="M42.1,60.9H18.8C8.5,60.9,0,52.4,0,42.1V18.8C0,8.5,8.5,0,18.8,0H42c10.3,0,18.8,8.5,18.8,18.8V42
		C60.9,52.4,52.4,60.9,42.1,60.9z"/>
</g>
<g id="Leerer_Rahmen" class="st0">
	<rect x="-23.6" y="-23.3" class="st2" width="108" height="108"/>
</g>
<g id="Ebene_1_00000173842194180829500080000010770674875624401804_" class="st0">
	<g id="logo_x5F_fast_x5F_fertig_x5F_mit_Ohren_x5F_2_1_" class="st3">
		<g>
			<path class="st4" d="M14.4,30.5c-0.8,0-1.6,0.1-2.4,0.1c-1.9,0-3.7,0-5.6,0c0-0.7,0-1.5,0.1-2.2c0.4-4.3,1.9-8.2,4.4-11.7
				c0.7-1,0.7-1,0-2C9.7,12.8,8.4,11,7.2,9.1C7,8.8,6.9,8.5,6.9,8.2c0-0.7,0.6-1.2,1.3-0.9C8.6,7.4,9,7.7,9.2,8
				c1.3,1.8,2.5,3.7,3.8,5.6c0.1,0.1,0.1,0.2,0.2,0.3c4.9-4.8,10.7-7.3,17.5-7.2c6.8,0.1,12.6,2.7,17.4,7.7c0.5-0.8,1.1-1.6,1.6-2.3
				c0.8-1.2,1.6-2.4,2.4-3.5c0.2-0.3,0.5-0.5,0.8-0.7C53.3,7.7,53.7,7.7,54,8c0.4,0.3,0.5,0.7,0.3,1.2c-0.1,0.2-0.2,0.4-0.3,0.6
				c-1.3,2-2.6,4-4,5.9c-0.3,0.4-0.3,0.6,0,1.1c2.3,3.2,3.7,6.9,4.3,10.8c0.1,1,0.2,2,0.3,3c-0.2,0-0.3,0.1-0.4,0.1
				c-2.4,0-4.9,0-7.3,0c-0.1,0-0.3,0-0.4-0.1c-0.3-2-0.8-3.9-1.7-5.7c-1.3-2.9-3.1-5.5-5.6-7.5c-2.2-1.7-4.6-2.8-7.3-3.1
				c-2.4-0.3-4.7,0.2-6.9,1.2c-1.2,0.5-2.2,1.3-3.2,2.1c-1.2,1-2.4,2.1-3.3,3.4c-0.8,1.3-1.6,2.7-2.2,4
				C15.2,26.8,14.7,28.6,14.4,30.5z"/>
			<path class="st5" d="M14.4,30.5c0.3-1.9,0.8-3.8,1.6-5.5c0.7-1.4,1.4-2.7,2.2-4c0.9-1.4,2-2.4,3.3-3.4c1-0.8,2-1.5,3.2-2.1
				c2.2-1,4.5-1.5,6.9-1.2c2.7,0.3,5.2,1.3,7.3,3.1c2.6,2,4.3,4.6,5.6,7.5c0.8,1.8,1.3,3.7,1.7,5.7l0,0l0,0c-0.1,0-0.3-0.1-0.4-0.1
				c-2.3,0-4.6,0-6.9,0l0,0c0,0,0-0.1-0.1-0.1c-0.5-1.6-1.1-3.2-2.1-4.7s-2.1-2.9-3.8-3.7c-1.5-0.7-3-0.6-4.5,0
				c-1.7,0.8-2.8,2.2-3.8,3.7s-1.5,3.1-2.1,4.7c-2.5,0-5,0-7.5,0C14.9,30.5,14.7,30.5,14.4,30.5L14.4,30.5L14.4,30.5z"/>
			<path class="st6" d="M37,47.3c-4.2,0-8.3,0-12.5,0c1.4-3.3,2.8-6.6,4.3-10c-1.9-0.7-3.3-2-3.9-3.9c-0.4-1.3-0.4-2.6,0-3.9
				c0.9-2.6,3.3-4.1,5.8-4.1c2.7,0,5,1.9,5.7,4.4c0.4,1.6,0.3,3.1-0.5,4.6c-0.8,1.4-2,2.4-3.5,2.9C33.9,40.7,35.4,44,37,47.3z"/>
			<path class="st7" d="M52.3,32.5c0.7,0,1.4,0,2.1,0c0,7.4,0,14.8,0,22.1c-2.6,0-5.2,0-7.8,0c0-0.2,0-0.4,0-0.6
				c0-6.9,0-13.9,0-20.8c0-0.2,0-0.5,0-0.7C46.6,32.5,50.3,32.5,52.3,32.5z"/>
			<path class="st4" d="M14.2,54.5c-0.1,0-0.2,0.1-0.3,0.1c-2.5,0-4.9,0-7.4,0c0-7.4,0-14.7,0-22.1c0.1,0,0.2,0,0.3,0
				c2.4,0,4.8,0,7.2,0c0.1,0,0.2,0,0.2,0c0,0.2-0.1,0.5-0.1,0.7C14.2,40.3,14.2,47.4,14.2,54.5z"/>
			<path class="st6" d="M14.2,54.5c0-7.1,0-14.2,0-21.3c0-0.2,0-0.5,0.1-0.7c0.9,0,1.7,0,2.6,0c1.8,0,3.5,0,5.3,0
				c-0.4,2.4-0.6,4.7-0.5,7.1c0,0.2-0.1,0.3-0.1,0.5c0,2.2,0,4.4,0,6.6c0,0.2,0.1,0.3,0.1,0.5c-0.1,0.1-0.1,0.2-0.2,0.3
				c-2.3,2.3-4.6,4.6-6.9,6.9C14.4,54.4,14.3,54.5,14.2,54.5z"/>
			<path class="st6" d="M46.5,44.1c0,3.3,0,10.2,0,10.5c-0.9-1-1.6-1.8-2.4-2.7c-1.4-1.6-2.8-3.2-4.1-4.8c-0.1-0.1-0.1-0.3-0.1-0.5
				c0-2.6,0-5.1,0-7.7c0-2.2-0.1-4.3-0.6-6.5c0.1,0,0.2,0,0.2,0c2.2,0,7,0,7,0S46.5,40.3,46.5,44.1z"/>
			<path class="st8" d="M38.9,30.5c2.3,0,4.6,0,6.9,0c0.1,0,0.3,0.1,0.4,0.1c-0.1,0-0.3,0.1-0.4,0.1c-2.1,0-4.3,0-6.4,0
				C39.2,30.6,39,30.5,38.9,30.5z"/>
			<path class="st9" d="M14.5,30.5c0.2,0,0.4-0.1,0.6-0.1c2.5,0,5,0,7.5,0c-0.1,0-0.2,0.1-0.3,0.1c-2.5,0-5,0-7.5,0
				C14.7,30.6,14.6,30.6,14.5,30.5z"/>
			<path class="st10" d="M21.6,47.2c0-0.2-0.1-0.3-0.1-0.5c0-2.2,0-4.4,0-6.6c0-0.2,0.1-0.3,0.1-0.5C21.6,42.1,21.6,44.6,21.6,47.2z
				"/>
			<path class="st8" d="M38.8,30.4c0,0,0,0.1,0.1,0.1C38.9,30.4,38.9,30.4,38.8,30.4z"/>
		</g>
	</g>
</g>
<g id="Bunt" class="st0">
	<path class="st11" d="M36.3,47.9c-4.1,0-7.7,0-11.8,0c-0.3,0-0.8-0.8-0.6-1.2c1.2-2.9,2.5-5.7,3.7-8.6c0.7-1.3-0.3-1.8-0.8-2
		c-1.4-0.8-2.5-2.1-3-3.7c-0.5-1.4-0.5-2.9,0-4.3c1-3,3.7-4.6,6.5-4.6c3,0,5.6,2.1,6.4,4.9c0.5,1.8,0.3,3.5-0.6,5.1
		c-0.5,0.9-1.2,1.7-2,2.3c-0.4,0.2-1.9,1-1.3,2.3c1.3,2.9,2.6,5.8,4,8.7C37.1,47.1,36.7,47.9,36.3,47.9z"/>
	<path class="st12" d="M19.2,34.5"/>
	<path class="st12" d="M37.5,30.4C37.5,30.5,37.5,30.5,37.5,30.4C37.5,30.5,37.5,30.5,37.5,30.4z"/>
	<path class="st12" d="M19.2,51.5h-7.5c-0.8,0-1.5-0.7-1.5-1.5V35.3c0-0.8,0.7-1.5,1.5-1.5h7.5c0.8,0,1.5,0.7,1.5,1.5V50
		C20.7,50.8,20,51.5,19.2,51.5z"/>
	<path class="st12" d="M41.7,51.5h7.5c0.8,0,1.5-0.7,1.5-1.5V35.3c0-0.8-0.7-1.5-1.5-1.5h-7.5c-0.8,0-1.5,0.7-1.5,1.5V50
		C40.2,50.8,40.9,51.5,41.7,51.5z"/>
	<path class="st12" d="M47.9,19.9c-1.2-1.9,0.7-3,2.6-5c1.3-1.3,1-3,0.3-3.7c-0.7-0.6-2.4-0.9-4.4,1c-1.7,2.5-3.8,1.8-4.3,1.4
		c-3.4-2.4-7.3-3.7-11.7-3.8l0,0l0,0l0,0l0,0c-4.4,0.1-8.3,1.3-11.7,3.8c-0.5,0.3-2.5,1.1-4.3-1.4c-2-2-3.6-1.7-4.4-1
		c-0.8,0.7-1.1,2.3,0.3,3.7c1.9,2,3.8,3.1,2.6,5c-1.6,2.4-2.5,5.2-2.9,8.1c-0.1,0.4-0.1,0.8-0.1,1.2c-0.1,0.7,0.5,1.4,1.3,1.4
		c2.1,0,6.2,0.1,7.9,0.1c0.7,0,1.3-0.5,1.4-1.2c0.4-3.1,2.2-10.3,9.9-10.3s9.5,7.2,9.9,10.3c0.1,0.7,0.7,1.2,1.4,1.2
		c1.7,0,5.8,0,7.9-0.1c0.8,0,1.3-0.7,1.3-1.4c0-0.4-0.1-0.8-0.1-1.2C50.4,25.1,49.5,22.3,47.9,19.9z"/>
</g>
<g id="Altes_Android" class="st0">
	<path class="st11" d="M36.3,47.9c-4.1,0-7.7,0-11.8,0c-0.3,0-0.8-0.8-0.6-1.2c1.2-2.9,2.5-5.7,3.7-8.6c0.7-1.3-0.3-1.8-0.8-2
		c-1.4-0.8-2.5-2.1-3-3.7c-0.5-1.4-0.5-2.9,0-4.3c1-3,3.7-4.6,6.5-4.6c3,0,5.6,2.1,6.4,4.9c0.5,1.8,0.3,3.5-0.6,5.1
		c-0.5,0.9-1.2,1.7-2,2.3c-0.4,0.2-1.9,1-1.3,2.3c1.3,2.9,2.6,5.8,4,8.7C37.1,47.1,36.7,47.9,36.3,47.9z"/>
	<path class="st12" d="M19.2,34.5"/>
	<path class="st12" d="M37.5,30.4C37.5,30.5,37.5,30.5,37.5,30.4C37.5,30.5,37.5,30.5,37.5,30.4z"/>
	<path class="st12" d="M19.2,51.5h-7.5c-0.8,0-1.5-0.7-1.5-1.5V35.3c0-0.8,0.7-1.5,1.5-1.5h7.5c0.8,0,1.5,0.7,1.5,1.5V50
		C20.7,50.8,20,51.5,19.2,51.5z"/>
	<path class="st12" d="M41.7,51.5h7.5c0.8,0,1.5-0.7,1.5-1.5V35.3c0-0.8-0.7-1.5-1.5-1.5h-7.5c-0.8,0-1.5,0.7-1.5,1.5V50
		C40.2,50.8,40.9,51.5,41.7,51.5z"/>
	<path class="st12" d="M47.9,19.9c-1.2-1.9,0.7-3,2.6-5c1.3-1.3,1-3,0.3-3.7c-0.7-0.6-2.4-0.9-4.4,1c-1.7,2.5-3.8,1.8-4.3,1.4
		c-3.4-2.4-7.3-3.7-11.7-3.8l0,0l0,0l0,0l0,0c-4.4,0.1-8.3,1.3-11.7,3.8c-0.5,0.3-2.5,1.1-4.3-1.4c-2-2-3.6-1.7-4.4-1
		c-0.8,0.7-1.1,2.3,0.3,3.7c1.9,2,3.8,3.1,2.6,5c-1.6,2.4-2.5,5.2-2.9,8.1c-0.1,0.4-0.1,0.8-0.1,1.2c-0.1,0.7,0.5,1.4,1.3,1.4
		c2.1,0,6.2,0.1,7.9,0.1c0.7,0,1.3-0.5,1.4-1.2c0.4-3.1,2.2-10.3,9.9-10.3s9.5,7.2,9.9,10.3c0.1,0.7,0.7,1.2,1.4,1.2
		c1.7,0,5.8,0,7.9-0.1c0.8,0,1.3-0.7,1.3-1.4c0-0.4-0.1-0.8-0.1-1.2C50.4,25.1,49.5,22.3,47.9,19.9z"/>
</g>
<g id="sw">
	<g>
		<path d="M36.3,47.9c-4.1,0-7.7,0-11.8,0c-0.3,0-0.8-0.8-0.6-1.2c1.2-2.9,2.5-5.7,3.7-8.6c0.7-1.3-0.3-1.8-0.8-2
			c-1.4-0.8-2.5-2.1-3-3.7c-0.5-1.4-0.5-2.9,0-4.3c1-3,3.7-4.6,6.5-4.6c3,0,5.6,2.1,6.4,4.9c0.5,1.8,0.3,3.5-0.6,5.1
			c-0.5,0.9-1.2,1.7-2,2.3c-0.4,0.2-1.9,1-1.3,2.3c1.3,2.9,2.6,5.8,4,8.7C37.1,47.1,36.7,47.9,36.3,47.9z"/>
		<path d="M19.2,34.5"/>
		<path d="M37.5,30.4C37.5,30.5,37.5,30.5,37.5,30.4C37.5,30.5,37.5,30.5,37.5,30.4z"/>
		<path d="M19.1,51.5h-7.5c-0.8,0-1.5-0.7-1.5-1.5V35.3c0-0.8,0.7-1.5,1.5-1.5h7.5c0.8,0,1.5,0.7,1.5,1.5V50
			C20.6,50.8,19.9,51.5,19.1,51.5z"/>
		<path d="M41.7,51.5h7.5c0.8,0,1.5-0.7,1.5-1.5V35.3c0-0.8-0.7-1.5-1.5-1.5h-7.5c-0.8,0-1.5,0.7-1.5,1.5V50
			C40.2,50.8,40.9,51.5,41.7,51.5z"/>
		<path d="M47.9,19.9c-1.2-1.9,0.7-3,2.6-5c1.3-1.3,1-3,0.3-3.7c-0.7-0.6-2.4-0.9-4.4,1c-1.7,2.5-3.8,1.8-4.3,1.4
			c-3.4-2.4-7.3-3.7-11.7-3.8l0,0l0,0l0,0l0,0c-4.4,0.1-8.3,1.3-11.7,3.8c-0.5,0.3-2.5,1.1-4.3-1.4c-2-2-3.6-1.7-4.4-1
			c-0.8,0.7-1.1,2.3,0.3,3.7c1.9,2,3.8,3.1,2.6,5c-1.6,2.4-2.5,5.2-2.9,8.1c-0.1,0.4-0.1,0.8-0.1,1.2c-0.1,0.7,0.5,1.4,1.3,1.4
			c2.1,0,6.2,0.1,7.9,0.1c0.7,0,1.3-0.5,1.4-1.2c0.4-3.1,2.2-10.3,9.9-10.3s9.5,7.2,9.9,10.3c0.1,0.7,0.7,1.2,1.4,1.2
			c1.7,0,5.8,0,7.9-0.1c0.8,0,1.3-0.7,1.3-1.4c0-0.4-0.1-0.8-0.1-1.2C50.4,25.1,49.5,22.3,47.9,19.9z"/>
	</g>
</g>
</svg>
